<svg xmlns="http://www.w3.org/2000/svg" xmlns:xlink="http://www.w3.org/1999/xlink" width="500" zoomAndPan="magnify" viewBox="0 0 375 374.999991" height="500" preserveAspectRatio="xMidYMid meet" version="1.0"><defs><g/><clipPath id="8ac5be1503"><path d="M 185.117188 110.175781 L 319.867188 110.175781 L 319.867188 234.984375 L 185.117188 234.984375 Z M 185.117188 110.175781 " clip-rule="nonzero"/></clipPath><clipPath id="9a432b86c8"><path d="M 202.367188 110.175781 L 302.617188 110.175781 C 312.144531 110.175781 319.867188 117.898438 319.867188 127.425781 L 319.867188 217.734375 C 319.867188 227.261719 312.144531 234.984375 302.617188 234.984375 L 202.367188 234.984375 C 192.839844 234.984375 185.117188 227.261719 185.117188 217.734375 L 185.117188 127.425781 C 185.117188 117.898438 192.839844 110.175781 202.367188 110.175781 Z M 202.367188 110.175781 " clip-rule="nonzero"/></clipPath><clipPath id="09bd371c9e"><path d="M 98.058594 110.175781 L 265.066406 110.175781 L 265.066406 234.984375 L 98.058594 234.984375 Z M 98.058594 110.175781 " clip-rule="nonzero"/></clipPath><clipPath id="a92f48ab70"><path d="M 101.085938 151.800781 C 99.257812 158.199219 98.058594 165.472656 98.058594 172.613281 C 98.058594 179.753906 99.085938 186.625 100.914062 192.953125 C 100.972656 193.089844 100.972656 193.222656 101.027344 193.359375 C 108.34375 217.136719 127.65625 234.648438 151.066406 234.984375 L 265.066406 234.984375 L 265.066406 110.175781 L 151.152344 110.175781 C 127.542969 110.511719 108.226562 127.753906 101.085938 151.800781 Z M 101.085938 151.800781 " clip-rule="nonzero"/></clipPath><clipPath id="2b10db82a1"><path d="M 114.503906 161.183594 L 137.296875 161.183594 L 137.296875 183.976562 L 114.503906 183.976562 Z M 114.503906 161.183594 " clip-rule="nonzero"/></clipPath><clipPath id="e3f240fdf0"><path d="M 125.898438 161.183594 C 119.605469 161.183594 114.503906 166.285156 114.503906 172.578125 C 114.503906 178.871094 119.605469 183.976562 125.898438 183.976562 C 132.195312 183.976562 137.296875 178.871094 137.296875 172.578125 C 137.296875 166.285156 132.195312 161.183594 125.898438 161.183594 Z M 125.898438 161.183594 " clip-rule="nonzero"/></clipPath><clipPath id="987c41297c"><path d="M 87.382812 173.09375 L 229.367188 173.09375 L 229.367188 261 L 87.382812 261 Z M 87.382812 173.09375 " clip-rule="nonzero"/></clipPath><clipPath id="5dd111dc31"><path d="M 126.945312 177.34375 C 118.042969 187.425781 105.933594 194.777344 101.445312 199.820312 C 98.796875 202.761719 97.433594 205.070312 96.070312 208.011719 C 94.789062 210.742188 93.824219 213.472656 93.183594 216.832031 C 92.382812 220.929688 92.0625 226.496094 92.382812 231.011719 C 92.703125 235.210938 93.34375 240.25 94.707031 242.980469 C 95.75 244.976562 96.871094 245.710938 98.71875 246.972656 C 101.765625 249.074219 106.816406 251.488281 111.789062 252.75 C 118.042969 254.429688 127.507812 255.164062 133.683594 254.640625 C 138.253906 254.324219 141.222656 253.484375 145.550781 251.699219 C 151.40625 249.285156 159.265625 242.035156 165.441406 239.726562 C 170.410156 237.835938 175.0625 237.207031 179.472656 237.207031 C 183.402344 237.207031 186.773438 238.152344 190.621094 239.097656 C 194.792969 240.148438 199.363281 241.40625 203.613281 243.191406 C 207.863281 245.082031 211.875 248.234375 216.042969 250.125 C 220.054688 251.910156 226.386719 252.75 228.074219 254.324219 C 228.714844 254.953125 229.035156 255.585938 229.035156 256.214844 C 229.035156 257.054688 227.992188 258.839844 227.351562 258.839844 C 226.789062 258.839844 225.425781 257.371094 225.425781 256.53125 C 225.425781 255.792969 226.628906 254.113281 227.269531 254.113281 C 227.832031 254.113281 228.792969 255.164062 228.953125 255.898438 C 229.113281 256.632812 228.792969 258 228.074219 258.523438 C 226.628906 259.679688 222.136719 258.628906 218.609375 257.578125 C 213.796875 256.109375 207.460938 251.171875 202.328125 248.96875 C 197.917969 247.078125 193.828125 245.921875 189.820312 244.976562 C 186.210938 244.136719 183.082031 243.296875 179.472656 243.296875 C 175.542969 243.296875 171.613281 243.71875 167.042969 245.398438 C 161.027344 247.601562 152.929688 254.847656 146.835938 257.371094 C 142.101562 259.363281 138.734375 260.207031 133.761719 260.625 C 127.1875 261.148438 117.5625 260.414062 110.90625 258.628906 C 105.453125 257.160156 100 254.746094 96.390625 252.015625 C 93.824219 250.125 91.980469 248.339844 90.617188 245.609375 C 89.253906 242.878906 88.691406 239.410156 88.292969 235.527344 C 87.730469 230.484375 87.648438 222.609375 88.371094 217.566406 C 88.933594 213.683594 90.136719 210.53125 91.257812 207.484375 C 92.300781 204.648438 93.34375 202.234375 94.949219 199.820312 C 96.871094 196.984375 99.199219 194.988281 102.484375 191.941406 C 107.859375 186.902344 120.929688 174.511719 124.699219 173.566406 C 125.824219 173.25 126.707031 173.566406 127.105469 174.195312 C 127.507812 174.824219 126.945312 177.449219 126.945312 177.449219 " clip-rule="nonzero"/></clipPath><clipPath id="4c52753faf"><path d="M 72 170.472656 L 204.449219 170.472656 L 204.449219 261.757812 L 72 261.757812 Z M 72 170.472656 " clip-rule="nonzero"/></clipPath><clipPath id="7423346066"><path d="M 133.597656 175.011719 C 104.289062 190.957031 99.046875 195.800781 95.472656 199.230469 C 93.171875 201.453125 91.980469 202.761719 90.152344 205.183594 C 87.847656 208.210938 85.070312 212.351562 83.082031 216.488281 C 80.941406 220.828125 78.875 226.074219 77.84375 230.617188 C 76.96875 234.449219 76.414062 238.488281 76.808594 241.816406 C 77.128906 244.644531 77.921875 247.46875 79.511719 249.285156 C 81.257812 251.304688 84.433594 252.011719 87.292969 252.617188 C 90.46875 253.320312 93.726562 254.027344 97.699219 253.019531 C 103.496094 251.605469 111.753906 243.9375 118.03125 241.617188 C 123.035156 239.699219 127.5625 238.589844 132.007812 238.789062 C 136.21875 238.992188 140.269531 240.707031 144.082031 242.421875 C 147.8125 244.136719 150.753906 246.964844 154.644531 248.882812 C 159.171875 251 164.492188 253.121094 169.65625 254.230469 C 174.898438 255.339844 180.296875 255.84375 185.699219 255.441406 C 191.179688 255.039062 199.753906 251.304688 202.296875 251.910156 C 203.089844 252.109375 203.566406 252.515625 203.804688 253.019531 C 204.042969 253.523438 204.125 254.53125 203.886719 255.136719 C 203.648438 255.742188 203.089844 256.347656 202.613281 256.449219 C 202.058594 256.550781 201.027344 255.84375 200.707031 255.238281 C 200.46875 254.734375 200.46875 253.625 200.707031 253.121094 C 200.945312 252.515625 201.660156 251.910156 202.136719 251.910156 C 202.695312 251.910156 203.726562 252.714844 203.964844 253.421875 C 204.203125 254.027344 204.203125 254.835938 203.726562 255.542969 C 202.535156 257.359375 196.578125 259.375 192.210938 260.285156 C 186.730469 261.496094 179.660156 261.699219 173.308594 260.789062 C 166.558594 259.78125 157.898438 256.652344 152.894531 254.128906 C 149.800781 252.515625 148.527344 250.597656 145.667969 249.082031 C 141.9375 247.164062 135.742188 244.945312 132.085938 244.441406 C 129.703125 244.136719 128.195312 244.441406 126.050781 244.945312 C 123.429688 245.550781 120.492188 246.460938 117.394531 247.972656 C 113.582031 249.789062 108.738281 253.925781 105.164062 255.742188 C 102.542969 257.15625 100.875 258.164062 98.175781 258.671875 C 94.757812 259.277344 89.675781 258.769531 86.261719 258.066406 C 83.640625 257.558594 81.257812 256.550781 79.429688 255.542969 C 78.160156 254.835938 77.128906 254.027344 76.253906 253.019531 C 75.460938 252.109375 74.824219 251.402344 74.269531 250.09375 C 73.394531 248.074219 72.519531 244.945312 72.363281 241.816406 C 72.125 237.984375 72.757812 232.835938 73.710938 228.699219 C 74.664062 224.5625 75.9375 220.929688 77.84375 216.789062 C 80.144531 211.746094 83.402344 205.992188 87.132812 201.148438 C 91.265625 195.800781 97.539062 190.453125 102.066406 186.71875 C 105.5625 183.890625 107.863281 182.277344 111.753906 180.058594 C 117.234375 176.929688 128.910156 170.671875 132.324219 170.671875 C 133.515625 170.671875 134.390625 171.074219 134.628906 171.78125 C 134.867188 172.488281 133.597656 175.011719 133.597656 175.011719 " clip-rule="nonzero"/></clipPath></defs><g clip-path="url(#8ac5be1503)"><g clip-path="url(#9a432b86c8)"><path fill="#276be5" d="M 185.117188 110.175781 L 319.867188 110.175781 L 319.867188 234.984375 L 185.117188 234.984375 Z M 185.117188 110.175781 " fill-opacity="1" fill-rule="nonzero"/></g></g><g clip-path="url(#09bd371c9e)"><g clip-path="url(#a92f48ab70)"><path fill="#276be5" d="M 265.066406 110.175781 L 265.066406 234.984375 L 98.058594 234.984375 L 98.058594 110.175781 Z M 265.066406 110.175781 " fill-opacity="1" fill-rule="nonzero"/></g></g><g clip-path="url(#2b10db82a1)"><g clip-path="url(#e3f240fdf0)"><path fill="#ffffff" d="M 114.503906 161.183594 L 137.296875 161.183594 L 137.296875 183.976562 L 114.503906 183.976562 Z M 114.503906 161.183594 " fill-opacity="1" fill-rule="nonzero"/></g></g><g fill="#ed6495" fill-opacity="1"><g transform="translate(147.768892, 164.008957)"><g><path d="M 3.679688 0 L 3.710938 0 C 4.675781 0 5.371094 -0.296875 5.769531 -0.929688 L 5.769531 -0.960938 C 6.097656 -1.558594 6.265625 -2.519531 6.265625 -3.8125 C 6.265625 -5.371094 6.164062 -6.796875 6.035156 -8.289062 C 5.96875 -8.917969 5.933594 -9.414062 5.933594 -9.710938 C 5.902344 -10.011719 5.902344 -10.210938 5.902344 -10.308594 C 5.902344 -10.609375 5.933594 -10.839844 5.96875 -11.003906 C 6 -11.136719 6.035156 -11.238281 6.066406 -11.269531 L 6.097656 -11.304688 C 6.132812 -11.371094 6.230469 -11.4375 6.398438 -11.503906 C 6.5625 -11.570312 6.863281 -11.601562 7.324219 -11.601562 L 7.359375 -11.601562 L 8.320312 -11.769531 C 8.917969 -11.800781 9.382812 -11.867188 9.710938 -11.902344 C 10.011719 -11.933594 10.34375 -11.933594 10.640625 -11.933594 C 10.875 -11.933594 10.875 -11.933594 10.972656 -11.703125 C 11.070312 -11.203125 11.105469 -10.609375 11.105469 -10.308594 L 11.105469 -9.710938 C 11.105469 -9.414062 11.070312 -8.917969 11.039062 -8.289062 C 10.9375 -6.796875 10.90625 -5.304688 10.9375 -3.8125 C 10.972656 -2.519531 11.105469 -1.589844 11.371094 -0.960938 L 11.371094 -0.929688 C 11.703125 -0.296875 12.230469 0 12.960938 0 C 13.523438 -0.03125 13.921875 -0.230469 14.15625 -0.597656 L 14.253906 -0.730469 C 14.253906 -0.761719 14.289062 -0.828125 14.320312 -0.863281 L 14.421875 -0.960938 C 14.652344 -1.257812 14.851562 -1.589844 14.851562 -1.988281 L 14.851562 -2.023438 C 14.851562 -2.289062 14.882812 -2.550781 14.917969 -2.851562 C 14.949219 -3.148438 14.949219 -3.449219 14.949219 -3.8125 C 14.949219 -4.507812 14.917969 -5.269531 14.851562 -6.164062 C 14.75 -8.023438 14.683594 -9.746094 14.519531 -11.335938 L 14.519531 -13.027344 C 14.519531 -13.921875 14.519531 -14.882812 14.488281 -15.910156 C 14.453125 -16.90625 14.453125 -18 14.453125 -19.195312 L 14.453125 -19.226562 L 14.355469 -22.875 C 14.253906 -25.292969 13.523438 -25.988281 12.664062 -25.988281 L 12.53125 -25.988281 C 12.363281 -26.023438 12.230469 -26.054688 12.132812 -26.054688 L 12.097656 -26.054688 C 11.335938 -26.054688 10.808594 -24.996094 10.609375 -24.265625 L 10.507812 -23.734375 L 10.507812 -23.570312 C 10.476562 -23.46875 10.507812 -23.402344 10.542969 -23.335938 C 10.574219 -22.707031 10.640625 -22.078125 10.675781 -21.515625 L 10.773438 -19.789062 C 10.839844 -18.894531 10.875 -17.933594 10.875 -16.90625 L 10.875 -15.015625 C 10.875 -14.851562 10.476562 -14.71875 9.710938 -14.683594 C 8.917969 -14.652344 7.890625 -14.617188 6.628906 -14.617188 L 6.398438 -14.617188 C 6.230469 -14.585938 6.132812 -14.683594 6.066406 -14.851562 C 6.035156 -14.949219 6.035156 -15.148438 6.066406 -15.414062 L 6.066406 -16.90625 C 6.066406 -18.796875 6.097656 -20.386719 6.164062 -21.648438 C 6.199219 -21.8125 6.199219 -21.945312 6.199219 -22.109375 L 6.199219 -22.507812 C 6.199219 -23.070312 6.164062 -23.601562 6.035156 -24.164062 C 5.734375 -25.261719 4.675781 -25.988281 3.515625 -25.988281 C 2.417969 -25.988281 1.359375 -25.195312 1.359375 -22.875 L 1.324219 -19.226562 L 1.324219 -15.910156 C 1.324219 -14.882812 1.324219 -13.921875 1.359375 -13.027344 C 1.390625 -12.132812 1.390625 -11.203125 1.390625 -10.308594 L 1.390625 -2.851562 C 1.390625 -2.617188 1.425781 -2.386719 1.457031 -2.15625 C 1.492188 -1.457031 1.722656 -0.929688 2.121094 -0.597656 C 2.484375 -0.199219 3.015625 0 3.679688 0 Z M 3.679688 0 "/></g></g></g><g fill="#ed6495" fill-opacity="1"><g transform="translate(164.044157, 164.008957)"><g><path d="M 3.449219 0 C 5.203125 0 5.96875 -1.160156 6.199219 -2.785156 C 6.332031 -4.011719 6.496094 -5.171875 6.664062 -6.332031 L 12.363281 -6.960938 C 12.53125 -5.636719 12.695312 -4.109375 12.863281 -2.355469 C 12.960938 -1.457031 13.390625 -0.464844 14.421875 -0.464844 L 14.75 -0.464844 C 16.042969 -0.863281 16.242188 -1.890625 16.242188 -3.082031 L 16.242188 -3.449219 C 16.242188 -3.546875 16.242188 -3.679688 16.210938 -3.8125 L 16.078125 -4.972656 C 15.710938 -8.421875 15.25 -12.695312 14.453125 -16.542969 C 13.523438 -21.214844 12.363281 -24.101562 10.90625 -25.558594 C 10.144531 -26.1875 9.382812 -26.519531 8.617188 -26.519531 L 8.421875 -26.519531 C 8.320312 -26.519531 8.253906 -26.519531 8.15625 -26.488281 C 7.257812 -26.355469 6.53125 -25.757812 5.902344 -24.664062 C 4.871094 -22.507812 4.042969 -19.328125 3.148438 -14.71875 C 2.386719 -10.90625 1.855469 -6.929688 1.359375 -3.082031 C 1.324219 -2.949219 1.324219 -2.816406 1.324219 -2.71875 L 1.324219 -2.386719 C 1.324219 -0.960938 1.957031 -0.0976562 3.449219 0 Z M 7.195312 -9.515625 C 7.789062 -13.390625 8.816406 -18.597656 9.449219 -21.648438 L 9.515625 -21.679688 L 9.613281 -21.546875 C 9.648438 -21.480469 9.679688 -21.382812 9.710938 -21.25 C 11.171875 -17.601562 11.4375 -13.292969 11.933594 -10.144531 L 11.96875 -9.976562 Z M 7.195312 -9.515625 "/></g></g></g><g fill="#ed6495" fill-opacity="1"><g transform="translate(181.612161, 164.008957)"><g><path d="M 3.480469 0 L 3.878906 0 C 4.574219 0 5.070312 -0.199219 5.4375 -0.628906 C 5.800781 -1.195312 6.199219 -2.785156 6.199219 -4.175781 L 6.164062 -9.382812 C 8.785156 -10.210938 11.402344 -12.296875 12.597656 -14.585938 L 12.628906 -14.71875 C 13.128906 -15.746094 13.390625 -16.875 13.492188 -18.101562 C 13.523438 -18.199219 13.523438 -18.332031 13.523438 -18.429688 L 13.523438 -18.761719 C 13.523438 -23.402344 9.515625 -26.785156 4.839844 -26.785156 C 4.175781 -26.785156 3.613281 -26.71875 3.117188 -26.554688 C 2.222656 -26.1875 1.390625 -25.492188 1.390625 -24.429688 L 1.390625 -23.535156 C 1.359375 -23.269531 1.324219 -23.039062 1.324219 -22.675781 L 1.324219 -20.386719 C 1.324219 -20.15625 1.324219 -19.921875 1.359375 -19.691406 L 1.359375 -18.796875 C 1.359375 -18.164062 1.359375 -17.503906 1.390625 -16.875 L 1.390625 -14.949219 C 1.390625 -14.617188 1.390625 -14.253906 1.425781 -13.890625 L 1.425781 -12.464844 C 1.425781 -11.96875 1.425781 -11.503906 1.457031 -11.003906 L 1.457031 -8.054688 C 1.457031 -7.558594 1.457031 -7.0625 1.425781 -6.5625 L 1.425781 -6.132812 C 1.425781 -5.96875 1.425781 -5.769531 1.390625 -5.570312 C 1.359375 -5.039062 1.324219 -4.476562 1.324219 -3.945312 L 1.324219 -3.347656 C 1.324219 -2.054688 1.921875 0 3.480469 0 Z M 6.230469 -13.890625 L 6.230469 -14.253906 L 6.265625 -14.816406 L 6.265625 -15.117188 C 6.265625 -15.214844 6.265625 -15.28125 6.296875 -15.347656 L 6.296875 -15.648438 C 6.296875 -16.078125 6.296875 -16.542969 6.332031 -17.003906 L 6.332031 -18.398438 C 6.332031 -19.027344 6.332031 -19.625 6.296875 -20.253906 C 6.265625 -20.882812 6.230469 -21.515625 6.230469 -22.144531 L 6.230469 -22.410156 C 6.230469 -22.574219 6.265625 -22.742188 6.296875 -22.90625 C 6.332031 -23.136719 6.398438 -23.269531 6.5625 -23.335938 C 6.597656 -23.335938 6.628906 -23.335938 6.628906 -23.371094 L 6.664062 -23.371094 C 6.863281 -23.371094 7.128906 -23.304688 7.492188 -23.171875 C 9.117188 -22.375 10.144531 -20.917969 10.308594 -19.160156 L 10.308594 -18.53125 C 10.308594 -16.675781 9.480469 -14.882812 8.054688 -13.65625 C 7.625 -13.324219 7.292969 -13.128906 7.09375 -13.0625 L 6.695312 -12.960938 L 6.664062 -12.960938 C 6.398438 -12.996094 6.296875 -13.292969 6.265625 -13.523438 C 6.230469 -13.625 6.230469 -13.757812 6.230469 -13.890625 Z M 6.230469 -13.890625 "/></g></g></g><g fill="#ed6495" fill-opacity="1"><g transform="translate(196.462101, 164.008957)"><g><path d="M 3.480469 0 L 3.878906 0 C 4.574219 0 5.070312 -0.199219 5.4375 -0.628906 C 5.800781 -1.195312 6.199219 -2.785156 6.199219 -4.175781 L 6.164062 -9.382812 C 8.785156 -10.210938 11.402344 -12.296875 12.597656 -14.585938 L 12.628906 -14.71875 C 13.128906 -15.746094 13.390625 -16.875 13.492188 -18.101562 C 13.523438 -18.199219 13.523438 -18.332031 13.523438 -18.429688 L 13.523438 -18.761719 C 13.523438 -23.402344 9.515625 -26.785156 4.839844 -26.785156 C 4.175781 -26.785156 3.613281 -26.71875 3.117188 -26.554688 C 2.222656 -26.1875 1.390625 -25.492188 1.390625 -24.429688 L 1.390625 -23.535156 C 1.359375 -23.269531 1.324219 -23.039062 1.324219 -22.675781 L 1.324219 -20.386719 C 1.324219 -20.15625 1.324219 -19.921875 1.359375 -19.691406 L 1.359375 -18.796875 C 1.359375 -18.164062 1.359375 -17.503906 1.390625 -16.875 L 1.390625 -14.949219 C 1.390625 -14.617188 1.390625 -14.253906 1.425781 -13.890625 L 1.425781 -12.464844 C 1.425781 -11.96875 1.425781 -11.503906 1.457031 -11.003906 L 1.457031 -8.054688 C 1.457031 -7.558594 1.457031 -7.0625 1.425781 -6.5625 L 1.425781 -6.132812 C 1.425781 -5.96875 1.425781 -5.769531 1.390625 -5.570312 C 1.359375 -5.039062 1.324219 -4.476562 1.324219 -3.945312 L 1.324219 -3.347656 C 1.324219 -2.054688 1.921875 0 3.480469 0 Z M 6.230469 -13.890625 L 6.230469 -14.253906 L 6.265625 -14.816406 L 6.265625 -15.117188 C 6.265625 -15.214844 6.265625 -15.28125 6.296875 -15.347656 L 6.296875 -15.648438 C 6.296875 -16.078125 6.296875 -16.542969 6.332031 -17.003906 L 6.332031 -18.398438 C 6.332031 -19.027344 6.332031 -19.625 6.296875 -20.253906 C 6.265625 -20.882812 6.230469 -21.515625 6.230469 -22.144531 L 6.230469 -22.410156 C 6.230469 -22.574219 6.265625 -22.742188 6.296875 -22.90625 C 6.332031 -23.136719 6.398438 -23.269531 6.5625 -23.335938 C 6.597656 -23.335938 6.628906 -23.335938 6.628906 -23.371094 L 6.664062 -23.371094 C 6.863281 -23.371094 7.128906 -23.304688 7.492188 -23.171875 C 9.117188 -22.375 10.144531 -20.917969 10.308594 -19.160156 L 10.308594 -18.53125 C 10.308594 -16.675781 9.480469 -14.882812 8.054688 -13.65625 C 7.625 -13.324219 7.292969 -13.128906 7.09375 -13.0625 L 6.695312 -12.960938 L 6.664062 -12.960938 C 6.398438 -12.996094 6.296875 -13.292969 6.265625 -13.523438 C 6.230469 -13.625 6.230469 -13.757812 6.230469 -13.890625 Z M 6.230469 -13.890625 "/></g></g></g><g fill="#ed6495" fill-opacity="1"><g transform="translate(211.312041, 164.008957)"><g><path d="M 3.480469 0 L 3.878906 0 C 4.574219 0 5.070312 -0.199219 5.4375 -0.628906 C 5.800781 -1.195312 6.199219 -2.785156 6.199219 -4.175781 L 6.199219 -8.519531 C 6.164062 -9.945312 6.164062 -11.335938 6.164062 -12.761719 L 6.164062 -17.703125 C 6.132812 -18.464844 6.132812 -19.226562 6.132812 -19.988281 L 6.199219 -21.910156 L 6.199219 -22.441406 C 6.097656 -23.636719 6.230469 -24.464844 5.4375 -25.492188 C 5.070312 -25.921875 4.574219 -26.121094 3.878906 -26.121094 L 3.480469 -26.121094 C 1.789062 -26.121094 1.324219 -24.035156 1.324219 -22.742188 L 1.324219 -19.757812 C 1.324219 -19.523438 1.324219 -19.292969 1.359375 -19.0625 L 1.359375 -18.863281 C 1.390625 -18.230469 1.390625 -17.570312 1.390625 -16.9375 L 1.390625 -13.921875 C 1.390625 -13.558594 1.390625 -13.160156 1.425781 -12.761719 L 1.425781 -12.496094 C 1.425781 -12 1.425781 -11.535156 1.457031 -11.039062 L 1.457031 -8.089844 C 1.457031 -7.589844 1.457031 -7.09375 1.425781 -6.597656 L 1.425781 -6.132812 C 1.425781 -5.96875 1.425781 -5.769531 1.390625 -5.601562 C 1.359375 -5.039062 1.324219 -4.507812 1.324219 -3.945312 L 1.324219 -3.382812 C 1.324219 -2.054688 1.921875 0 3.480469 0 Z M 3.480469 0 "/></g></g></g><g fill="#ed6495" fill-opacity="1"><g transform="translate(218.836458, 164.008957)"><g><path d="M 3.515625 0 L 3.546875 0 C 5.835938 0 6.230469 -1.65625 6.230469 -3.449219 L 6.230469 -3.777344 C 6.230469 -3.878906 6.230469 -4.011719 6.199219 -4.109375 C 6.097656 -6.730469 6.035156 -12.066406 6.035156 -15.117188 L 6.035156 -16.375 C 6.996094 -13.921875 7.226562 -13.160156 8.355469 -10.375 C 8.851562 -9.25 9.382812 -7.890625 9.945312 -6.332031 L 9.945312 -6.296875 L 10.042969 -6.097656 C 10.042969 -6.066406 10.042969 -6.066406 10.078125 -6.035156 L 11.570312 -1.558594 C 11.96875 -0.332031 12.363281 0.230469 13.957031 0 L 14.585938 0 C 15.480469 0 15.582031 -1.324219 15.710938 -1.890625 C 15.8125 -2.320312 15.878906 -2.785156 15.878906 -3.28125 C 15.84375 -3.746094 15.84375 -4.242188 15.878906 -4.742188 C 15.945312 -6.332031 15.976562 -8.089844 15.976562 -10.011719 L 15.976562 -11.800781 C 15.976562 -13.890625 15.84375 -16.210938 15.710938 -18.464844 C 15.710938 -19.027344 15.679688 -19.625 15.648438 -20.1875 C 15.648438 -20.683594 15.582031 -21.382812 15.582031 -22.875 L 15.582031 -23.734375 C 15.582031 -24.960938 15.546875 -26.554688 14.089844 -26.554688 C 12.496094 -26.554688 12.097656 -25.757812 12.066406 -24.996094 C 12.035156 -24.894531 12.035156 -24.695312 12.035156 -24.464844 C 12.035156 -24.398438 12.035156 -24.332031 12.066406 -24.265625 L 12.066406 -23.902344 C 12.066406 -21.8125 12.597656 -18.894531 12.597656 -16.707031 L 12.597656 -16.675781 C 12.597656 -14.453125 12.5625 -13.390625 12.5625 -10.144531 L 12.5625 -10.011719 C 12.5625 -9.84375 12.5625 -9.582031 12.597656 -9.25 C 12.597656 -8.917969 12.597656 -8.652344 12.5625 -8.484375 C 10.507812 -13.855469 8.585938 -19.523438 7.921875 -20.882812 L 7.691406 -21.414062 C 7.65625 -21.546875 7.589844 -21.679688 7.558594 -21.84375 C 7.492188 -22.011719 7.425781 -22.175781 7.390625 -22.34375 L 7.292969 -22.542969 C 6.628906 -24.429688 5.835938 -26.320312 3.746094 -26.421875 C 1.757812 -26.421875 1.324219 -24.695312 1.324219 -22.90625 L 1.324219 -20.15625 L 1.359375 -16.175781 C 1.359375 -13.988281 1.425781 -11.039062 1.425781 -8.75 L 1.425781 -6.761719 C 1.425781 -6.066406 1.425781 -5.402344 1.390625 -4.773438 C 1.359375 -4.675781 1.359375 -4.574219 1.359375 -4.476562 L 1.359375 -4.144531 C 1.324219 -4.011719 1.324219 -3.878906 1.324219 -3.746094 L 1.324219 -3.28125 C 1.324219 -1.691406 1.691406 0 3.515625 0 Z M 3.515625 0 "/></g></g></g><g fill="#ed6495" fill-opacity="1"><g transform="translate(236.139296, 164.008957)"><g><path d="M 7.921875 0 L 8.386719 0 C 9.183594 0 9.878906 -0.03125 10.507812 -0.0664062 C 11.667969 -0.164062 12.730469 -0.628906 12.730469 -1.789062 C 12.730469 -2.355469 12.230469 -3.347656 11.070312 -3.347656 L 11.039062 -3.347656 L 10.109375 -3.28125 C 9.945312 -3.25 9.746094 -3.25 9.582031 -3.25 L 8.484375 -3.25 C 8.320312 -3.25 8.121094 -3.25 7.957031 -3.28125 C 6.929688 -3.515625 6.332031 -4.375 6.132812 -5.867188 L 6.132812 -6.035156 C 6.097656 -6.066406 6.097656 -6.132812 6.097656 -6.164062 C 5.769531 -8.421875 5.800781 -9.648438 5.800781 -9.84375 L 5.835938 -10.773438 C 5.867188 -11.402344 6.53125 -11.402344 7.160156 -11.402344 L 8.71875 -11.402344 C 8.851562 -11.371094 8.984375 -11.371094 9.082031 -11.371094 L 9.679688 -11.371094 C 10.609375 -11.371094 11.238281 -12.066406 11.238281 -12.960938 C 11.238281 -13.425781 11.070312 -13.824219 10.742188 -14.15625 L 10.707031 -14.1875 C 10.410156 -14.488281 9.945312 -14.519531 9.546875 -14.519531 L 7.65625 -14.519531 C 7.492188 -14.519531 7.324219 -14.488281 7.160156 -14.453125 L 6.761719 -14.453125 C 6.496094 -14.453125 6.296875 -14.488281 6.164062 -14.550781 L 6.132812 -14.585938 C 6.097656 -14.617188 6.035156 -14.71875 6 -14.851562 C 5.933594 -14.949219 5.902344 -15.214844 5.902344 -15.582031 C 5.933594 -15.679688 5.933594 -15.84375 5.933594 -16.042969 C 5.96875 -16.144531 6 -16.242188 6 -16.34375 L 6 -16.574219 C 6 -17.335938 6.035156 -18.132812 6.097656 -18.894531 C 6.164062 -19.65625 6.199219 -20.421875 6.199219 -21.183594 L 6.199219 -21.515625 C 6.199219 -22.34375 6.429688 -22.90625 6.796875 -23.070312 C 7.128906 -23.203125 7.523438 -23.269531 7.957031 -23.269531 L 8.222656 -23.269531 C 8.289062 -23.238281 8.355469 -23.238281 8.421875 -23.238281 L 9.746094 -23.238281 C 10.675781 -23.238281 12.066406 -23.636719 12.066406 -24.828125 C 12.066406 -24.996094 12.035156 -25.160156 12 -25.261719 C 11.667969 -26.75 8.785156 -26.519531 7.128906 -26.519531 L 4.707031 -26.519531 C 2.289062 -26.519531 1.589844 -25.558594 1.589844 -23.039062 L 1.589844 -22.574219 L 1.425781 -19.824219 C 1.359375 -18.628906 1.359375 -17.4375 1.390625 -16.210938 C 1.425781 -14.984375 1.457031 -13.722656 1.425781 -12.464844 L 1.390625 -12.199219 C 1.359375 -10.972656 1.359375 -9.8125 1.324219 -8.683594 C 1.292969 -7.523438 1.359375 -6.429688 1.523438 -5.371094 C 1.625 -4.410156 1.824219 -3.316406 2.253906 -2.386719 C 2.75 -1.457031 3.414062 -0.796875 4.375 -0.429688 L 4.410156 -0.429688 C 5.238281 -0.164062 6.265625 -0.03125 7.425781 -0.03125 C 7.589844 0 7.757812 0 7.921875 0 Z M 7.921875 0 "/></g></g></g><g fill="#ed6495" fill-opacity="1"><g transform="translate(250.193699, 164.008957)"><g><path d="M 5.835938 0 L 6.363281 0 C 7.359375 0 8.289062 -0.132812 9.117188 -0.363281 C 11.636719 -1.09375 13.261719 -4.839844 12.996094 -6.664062 C 12.796875 -9.347656 11.304688 -11.304688 9.910156 -13.0625 C 9.214844 -13.890625 8.652344 -14.785156 8.023438 -15.8125 L 7.988281 -15.8125 C 6.894531 -17.503906 6.199219 -18.996094 6.199219 -21.015625 C 6.199219 -21.84375 6.695312 -22.941406 7.789062 -22.941406 C 8.289062 -22.941406 8.851562 -22.742188 9.613281 -22.175781 C 10.042969 -21.8125 10.476562 -21.582031 10.90625 -21.449219 C 11.003906 -21.414062 11.136719 -21.382812 11.269531 -21.382812 C 12.035156 -21.382812 12.398438 -22.078125 12.496094 -22.707031 C 12.496094 -22.972656 12.429688 -23.203125 12.296875 -23.4375 C 11.601562 -25.261719 9.25 -26.554688 7.160156 -26.554688 C 6.796875 -26.554688 6.464844 -26.519531 6.097656 -26.421875 C 3.414062 -25.789062 1.691406 -23.800781 1.523438 -21.050781 C 1.324219 -18.066406 3.480469 -14.585938 6.066406 -10.808594 L 7.0625 -9.382812 L 7.09375 -9.382812 C 7.65625 -8.617188 8.054688 -7.789062 8.289062 -6.894531 C 8.320312 -6.53125 8.355469 -6.265625 8.320312 -6 C 8.320312 -4.542969 6.960938 -2.984375 5.867188 -2.984375 L 5.769531 -2.984375 C 5.335938 -2.984375 4.773438 -3.28125 4.109375 -3.878906 L 3.414062 -4.441406 C 3.183594 -4.609375 2.882812 -4.675781 2.585938 -4.675781 C 2.519531 -4.675781 2.453125 -4.675781 2.386719 -4.640625 C 2.15625 -4.609375 1.957031 -4.476562 1.855469 -4.308594 C 1.722656 -4.109375 1.625 -3.976562 1.558594 -3.910156 L 1.523438 -3.878906 C 1.390625 -3.613281 1.324219 -3.347656 1.324219 -3.082031 C 1.292969 -2.652344 1.425781 -2.253906 1.691406 -1.890625 C 2.585938 -0.597656 4.277344 0 5.835938 0 Z M 5.835938 0 "/></g></g></g><g fill="#ed6495" fill-opacity="1"><g transform="translate(264.546437, 164.008957)"><g><path d="M 5.835938 0 L 6.363281 0 C 7.359375 0 8.289062 -0.132812 9.117188 -0.363281 C 11.636719 -1.09375 13.261719 -4.839844 12.996094 -6.664062 C 12.796875 -9.347656 11.304688 -11.304688 9.910156 -13.0625 C 9.214844 -13.890625 8.652344 -14.785156 8.023438 -15.8125 L 7.988281 -15.8125 C 6.894531 -17.503906 6.199219 -18.996094 6.199219 -21.015625 C 6.199219 -21.84375 6.695312 -22.941406 7.789062 -22.941406 C 8.289062 -22.941406 8.851562 -22.742188 9.613281 -22.175781 C 10.042969 -21.8125 10.476562 -21.582031 10.90625 -21.449219 C 11.003906 -21.414062 11.136719 -21.382812 11.269531 -21.382812 C 12.035156 -21.382812 12.398438 -22.078125 12.496094 -22.707031 C 12.496094 -22.972656 12.429688 -23.203125 12.296875 -23.4375 C 11.601562 -25.261719 9.25 -26.554688 7.160156 -26.554688 C 6.796875 -26.554688 6.464844 -26.519531 6.097656 -26.421875 C 3.414062 -25.789062 1.691406 -23.800781 1.523438 -21.050781 C 1.324219 -18.066406 3.480469 -14.585938 6.066406 -10.808594 L 7.0625 -9.382812 L 7.09375 -9.382812 C 7.65625 -8.617188 8.054688 -7.789062 8.289062 -6.894531 C 8.320312 -6.53125 8.355469 -6.265625 8.320312 -6 C 8.320312 -4.542969 6.960938 -2.984375 5.867188 -2.984375 L 5.769531 -2.984375 C 5.335938 -2.984375 4.773438 -3.28125 4.109375 -3.878906 L 3.414062 -4.441406 C 3.183594 -4.609375 2.882812 -4.675781 2.585938 -4.675781 C 2.519531 -4.675781 2.453125 -4.675781 2.386719 -4.640625 C 2.15625 -4.609375 1.957031 -4.476562 1.855469 -4.308594 C 1.722656 -4.109375 1.625 -3.976562 1.558594 -3.910156 L 1.523438 -3.878906 C 1.390625 -3.613281 1.324219 -3.347656 1.324219 -3.082031 C 1.292969 -2.652344 1.425781 -2.253906 1.691406 -1.890625 C 2.585938 -0.597656 4.277344 0 5.835938 0 Z M 5.835938 0 "/></g></g></g><g fill="#ffffff" fill-opacity="1"><g transform="translate(147.768892, 203.741655)"><g><path d="M 7.921875 0 L 8.386719 0 C 9.183594 0 9.878906 -0.03125 10.507812 -0.0664062 C 11.667969 -0.164062 12.730469 -0.628906 12.730469 -1.789062 C 12.730469 -2.355469 12.230469 -3.347656 11.070312 -3.347656 L 11.039062 -3.347656 L 10.109375 -3.28125 C 9.945312 -3.25 9.746094 -3.25 9.582031 -3.25 L 8.484375 -3.25 C 8.320312 -3.25 8.121094 -3.25 7.957031 -3.28125 C 6.929688 -3.515625 6.332031 -4.375 6.132812 -5.867188 L 6.132812 -6.035156 C 6.097656 -6.066406 6.097656 -6.132812 6.097656 -6.164062 C 5.769531 -8.421875 5.800781 -9.648438 5.800781 -9.84375 L 5.835938 -10.773438 C 5.867188 -11.402344 6.53125 -11.402344 7.160156 -11.402344 L 8.71875 -11.402344 C 8.851562 -11.371094 8.984375 -11.371094 9.082031 -11.371094 L 9.679688 -11.371094 C 10.609375 -11.371094 11.238281 -12.066406 11.238281 -12.960938 C 11.238281 -13.425781 11.070312 -13.824219 10.742188 -14.15625 L 10.707031 -14.1875 C 10.410156 -14.488281 9.945312 -14.519531 9.546875 -14.519531 L 7.65625 -14.519531 C 7.492188 -14.519531 7.324219 -14.488281 7.160156 -14.453125 L 6.761719 -14.453125 C 6.496094 -14.453125 6.296875 -14.488281 6.164062 -14.550781 L 6.132812 -14.585938 C 6.097656 -14.617188 6.035156 -14.71875 6 -14.851562 C 5.933594 -14.949219 5.902344 -15.214844 5.902344 -15.582031 C 5.933594 -15.679688 5.933594 -15.84375 5.933594 -16.042969 C 5.96875 -16.144531 6 -16.242188 6 -16.34375 L 6 -16.574219 C 6 -17.335938 6.035156 -18.132812 6.097656 -18.894531 C 6.164062 -19.65625 6.199219 -20.421875 6.199219 -21.183594 L 6.199219 -21.515625 C 6.199219 -22.34375 6.429688 -22.90625 6.796875 -23.070312 C 7.128906 -23.203125 7.523438 -23.269531 7.957031 -23.269531 L 8.222656 -23.269531 C 8.289062 -23.238281 8.355469 -23.238281 8.421875 -23.238281 L 9.746094 -23.238281 C 10.675781 -23.238281 12.066406 -23.636719 12.066406 -24.828125 C 12.066406 -24.996094 12.035156 -25.160156 12 -25.261719 C 11.667969 -26.75 8.785156 -26.519531 7.128906 -26.519531 L 4.707031 -26.519531 C 2.289062 -26.519531 1.589844 -25.558594 1.589844 -23.039062 L 1.589844 -22.574219 L 1.425781 -19.824219 C 1.359375 -18.628906 1.359375 -17.4375 1.390625 -16.210938 C 1.425781 -14.984375 1.457031 -13.722656 1.425781 -12.464844 L 1.390625 -12.199219 C 1.359375 -10.972656 1.359375 -9.8125 1.324219 -8.683594 C 1.292969 -7.523438 1.359375 -6.429688 1.523438 -5.371094 C 1.625 -4.410156 1.824219 -3.316406 2.253906 -2.386719 C 2.75 -1.457031 3.414062 -0.796875 4.375 -0.429688 L 4.410156 -0.429688 C 5.238281 -0.164062 6.265625 -0.03125 7.425781 -0.03125 C 7.589844 0 7.757812 0 7.921875 0 Z M 7.921875 0 "/></g></g></g><g fill="#ffffff" fill-opacity="1"><g transform="translate(161.823296, 203.741655)"><g><path d="M 14.882812 0.03125 C 15.648438 0.03125 16.476562 -0.230469 16.773438 -0.996094 L 16.808594 -0.996094 C 16.90625 -1.226562 16.9375 -1.457031 16.9375 -1.757812 C 16.9375 -2.320312 16.507812 -3.449219 16.242188 -3.945312 C 14.519531 -7.390625 13.195312 -10.574219 11.503906 -14.253906 L 11.503906 -14.289062 C 11.46875 -14.320312 11.4375 -14.386719 11.4375 -14.421875 L 11.335938 -14.550781 L 11.203125 -14.785156 C 11.238281 -14.882812 11.304688 -15.015625 11.371094 -15.117188 C 11.402344 -15.214844 11.46875 -15.28125 11.503906 -15.382812 C 11.535156 -15.480469 11.570312 -15.515625 11.570312 -15.546875 L 11.769531 -15.910156 C 11.769531 -15.976562 12.265625 -17.039062 13.261719 -19.09375 C 14.15625 -20.917969 14.851562 -22.175781 15.015625 -22.574219 L 15.050781 -22.609375 C 15.050781 -22.707031 15.082031 -22.742188 15.183594 -22.875 L 15.214844 -22.90625 C 15.25 -22.972656 15.28125 -23.039062 15.316406 -23.070312 C 15.710938 -23.835938 16.210938 -24.628906 16.210938 -25.523438 L 16.210938 -25.589844 C 16.210938 -26.121094 15.976562 -26.519531 15.546875 -26.75 L 15.515625 -26.75 C 15.316406 -26.851562 15.082031 -26.917969 14.816406 -26.917969 C 14.453125 -26.917969 14.121094 -26.785156 13.890625 -26.519531 C 13.492188 -26.121094 13.226562 -25.65625 12.996094 -25.261719 C 12.363281 -23.96875 11.769531 -22.675781 11.136719 -21.449219 L 9.546875 -18.230469 C 9.25 -18.863281 8.984375 -19.457031 8.683594 -20.054688 C 8.386719 -20.652344 8.121094 -21.25 7.824219 -21.84375 L 7.789062 -21.84375 C 7.65625 -22.109375 7.492188 -22.441406 7.390625 -22.742188 L 7.390625 -22.773438 L 7.359375 -22.875 C 6.730469 -24.101562 6.097656 -25.492188 5.070312 -26.289062 C 4.542969 -26.683594 3.910156 -26.882812 3.183594 -26.882812 L 3.082031 -26.882812 C 1.988281 -26.851562 1.589844 -26.386719 1.457031 -25.957031 C 1.359375 -25.789062 1.324219 -25.558594 1.324219 -25.292969 C 1.324219 -24.53125 1.757812 -23.503906 2.121094 -22.875 C 3.679688 -19.824219 5.203125 -16.742188 7.027344 -12.996094 C 6.664062 -12.230469 6.230469 -11.335938 5.800781 -10.34375 C 4.839844 -8.320312 3.84375 -6.332031 2.882812 -4.375 L 2.882812 -4.308594 C 2.851562 -4.210938 2.816406 -4.144531 2.71875 -4.011719 C 2.320312 -3.316406 1.757812 -2.253906 1.757812 -1.359375 L 1.757812 -1.324219 C 1.757812 -0.960938 1.890625 -0.53125 2.453125 -0.164062 C 2.683594 -0.0664062 2.882812 0 3.082031 0 C 3.316406 0 3.546875 -0.0664062 3.777344 -0.230469 L 3.8125 -0.230469 C 4.277344 -0.53125 4.707031 -1.195312 5.136719 -2.15625 L 5.867188 -3.679688 L 6.164062 -4.277344 C 6.265625 -4.476562 6.332031 -4.675781 6.429688 -4.871094 L 7.589844 -7.257812 L 7.890625 -7.855469 C 7.957031 -8.054688 8.054688 -8.253906 8.15625 -8.453125 L 8.1875 -8.453125 C 8.289062 -8.785156 8.453125 -9.148438 8.683594 -9.582031 C 9.214844 -8.453125 10.078125 -5.902344 10.742188 -4.707031 C 10.875 -4.441406 11.003906 -4.144531 11.136719 -3.8125 L 11.734375 -2.585938 C 12.097656 -1.789062 12.53125 -1.128906 13.0625 -0.695312 C 13.558594 -0.199219 14.15625 0.03125 14.882812 0.03125 Z M 14.882812 0.03125 "/></g></g></g><g fill="#ffffff" fill-opacity="1"><g transform="translate(180.087397, 203.741655)"><g><path d="M 8.652344 0 C 10.011719 0 11.269531 -0.464844 12.429688 -1.359375 L 12.464844 -1.359375 C 14.1875 -2.816406 15.148438 -5.171875 15.25 -7.691406 L 15.25 -7.789062 C 15.25 -8.71875 14.882812 -9.710938 13.789062 -9.710938 L 13.722656 -9.710938 C 12.53125 -9.546875 12.296875 -8.320312 12.164062 -7.128906 C 11.902344 -5.636719 11.570312 -4.308594 10.375 -3.515625 C 10.042969 -3.382812 9.746094 -3.316406 9.515625 -3.316406 C 9.183594 -3.316406 8.882812 -3.414062 8.617188 -3.613281 C 6.496094 -5.570312 6 -11.636719 6 -14.488281 C 6 -17.203125 6.296875 -22.308594 9.148438 -23.570312 L 9.648438 -23.734375 L 9.679688 -23.734375 C 9.8125 -23.800781 9.976562 -23.835938 10.144531 -23.835938 C 10.410156 -23.835938 10.675781 -23.734375 10.9375 -23.535156 L 11.269531 -23.171875 C 11.503906 -22.808594 11.703125 -22.308594 11.867188 -21.648438 C 12.164062 -20.355469 12.628906 -19.0625 13.824219 -18.828125 L 13.855469 -18.828125 C 14.882812 -18.828125 15.117188 -19.722656 15.117188 -20.550781 L 15.117188 -20.652344 C 15.117188 -21.050781 15.082031 -21.382812 15.015625 -21.679688 C 14.386719 -25.09375 12.894531 -26.882812 9.414062 -26.882812 C 5.96875 -26.882812 3.910156 -24.929688 2.785156 -22.277344 C 1.625 -19.457031 1.390625 -16.277344 1.324219 -13.589844 L 1.324219 -13.160156 C 1.324219 -10.675781 1.558594 -7.558594 2.585938 -4.742188 C 3.613281 -1.957031 5.535156 0 8.652344 0 Z M 8.652344 0 "/></g></g></g><g fill="#ffffff" fill-opacity="1"><g transform="translate(196.660995, 203.741655)"><g><path d="M 3.679688 0 L 3.710938 0 C 4.675781 0 5.371094 -0.296875 5.769531 -0.929688 L 5.769531 -0.960938 C 6.097656 -1.558594 6.265625 -2.519531 6.265625 -3.8125 C 6.265625 -5.371094 6.164062 -6.796875 6.035156 -8.289062 C 5.96875 -8.917969 5.933594 -9.414062 5.933594 -9.710938 C 5.902344 -10.011719 5.902344 -10.210938 5.902344 -10.308594 C 5.902344 -10.609375 5.933594 -10.839844 5.96875 -11.003906 C 6 -11.136719 6.035156 -11.238281 6.066406 -11.269531 L 6.097656 -11.304688 C 6.132812 -11.371094 6.230469 -11.4375 6.398438 -11.503906 C 6.5625 -11.570312 6.863281 -11.601562 7.324219 -11.601562 L 7.359375 -11.601562 L 8.320312 -11.769531 C 8.917969 -11.800781 9.382812 -11.867188 9.710938 -11.902344 C 10.011719 -11.933594 10.34375 -11.933594 10.640625 -11.933594 C 10.875 -11.933594 10.875 -11.933594 10.972656 -11.703125 C 11.070312 -11.203125 11.105469 -10.609375 11.105469 -10.308594 L 11.105469 -9.710938 C 11.105469 -9.414062 11.070312 -8.917969 11.039062 -8.289062 C 10.9375 -6.796875 10.90625 -5.304688 10.9375 -3.8125 C 10.972656 -2.519531 11.105469 -1.589844 11.371094 -0.960938 L 11.371094 -0.929688 C 11.703125 -0.296875 12.230469 0 12.960938 0 C 13.523438 -0.03125 13.921875 -0.230469 14.15625 -0.597656 L 14.253906 -0.730469 C 14.253906 -0.761719 14.289062 -0.828125 14.320312 -0.863281 L 14.421875 -0.960938 C 14.652344 -1.257812 14.851562 -1.589844 14.851562 -1.988281 L 14.851562 -2.023438 C 14.851562 -2.289062 14.882812 -2.550781 14.917969 -2.851562 C 14.949219 -3.148438 14.949219 -3.449219 14.949219 -3.8125 C 14.949219 -4.507812 14.917969 -5.269531 14.851562 -6.164062 C 14.75 -8.023438 14.683594 -9.746094 14.519531 -11.335938 L 14.519531 -13.027344 C 14.519531 -13.921875 14.519531 -14.882812 14.488281 -15.910156 C 14.453125 -16.90625 14.453125 -18 14.453125 -19.195312 L 14.453125 -19.226562 L 14.355469 -22.875 C 14.253906 -25.292969 13.523438 -25.988281 12.664062 -25.988281 L 12.53125 -25.988281 C 12.363281 -26.023438 12.230469 -26.054688 12.132812 -26.054688 L 12.097656 -26.054688 C 11.335938 -26.054688 10.808594 -24.996094 10.609375 -24.265625 L 10.507812 -23.734375 L 10.507812 -23.570312 C 10.476562 -23.46875 10.507812 -23.402344 10.542969 -23.335938 C 10.574219 -22.707031 10.640625 -22.078125 10.675781 -21.515625 L 10.773438 -19.789062 C 10.839844 -18.894531 10.875 -17.933594 10.875 -16.90625 L 10.875 -15.015625 C 10.875 -14.851562 10.476562 -14.71875 9.710938 -14.683594 C 8.917969 -14.652344 7.890625 -14.617188 6.628906 -14.617188 L 6.398438 -14.617188 C 6.230469 -14.585938 6.132812 -14.683594 6.066406 -14.851562 C 6.035156 -14.949219 6.035156 -15.148438 6.066406 -15.414062 L 6.066406 -16.90625 C 6.066406 -18.796875 6.097656 -20.386719 6.164062 -21.648438 C 6.199219 -21.8125 6.199219 -21.945312 6.199219 -22.109375 L 6.199219 -22.507812 C 6.199219 -23.070312 6.164062 -23.601562 6.035156 -24.164062 C 5.734375 -25.261719 4.675781 -25.988281 3.515625 -25.988281 C 2.417969 -25.988281 1.359375 -25.195312 1.359375 -22.875 L 1.324219 -19.226562 L 1.324219 -15.910156 C 1.324219 -14.882812 1.324219 -13.921875 1.359375 -13.027344 C 1.390625 -12.132812 1.390625 -11.203125 1.390625 -10.308594 L 1.390625 -2.851562 C 1.390625 -2.617188 1.425781 -2.386719 1.457031 -2.15625 C 1.492188 -1.457031 1.722656 -0.929688 2.121094 -0.597656 C 2.484375 -0.199219 3.015625 0 3.679688 0 Z M 3.679688 0 "/></g></g></g><g fill="#ffffff" fill-opacity="1"><g transform="translate(212.936259, 203.741655)"><g><path d="M 3.449219 0 C 5.203125 0 5.96875 -1.160156 6.199219 -2.785156 C 6.332031 -4.011719 6.496094 -5.171875 6.664062 -6.332031 L 12.363281 -6.960938 C 12.53125 -5.636719 12.695312 -4.109375 12.863281 -2.355469 C 12.960938 -1.457031 13.390625 -0.464844 14.421875 -0.464844 L 14.75 -0.464844 C 16.042969 -0.863281 16.242188 -1.890625 16.242188 -3.082031 L 16.242188 -3.449219 C 16.242188 -3.546875 16.242188 -3.679688 16.210938 -3.8125 L 16.078125 -4.972656 C 15.710938 -8.421875 15.25 -12.695312 14.453125 -16.542969 C 13.523438 -21.214844 12.363281 -24.101562 10.90625 -25.558594 C 10.144531 -26.1875 9.382812 -26.519531 8.617188 -26.519531 L 8.421875 -26.519531 C 8.320312 -26.519531 8.253906 -26.519531 8.15625 -26.488281 C 7.257812 -26.355469 6.53125 -25.757812 5.902344 -24.664062 C 4.871094 -22.507812 4.042969 -19.328125 3.148438 -14.71875 C 2.386719 -10.90625 1.855469 -6.929688 1.359375 -3.082031 C 1.324219 -2.949219 1.324219 -2.816406 1.324219 -2.71875 L 1.324219 -2.386719 C 1.324219 -0.960938 1.957031 -0.0976562 3.449219 0 Z M 7.195312 -9.515625 C 7.789062 -13.390625 8.816406 -18.597656 9.449219 -21.648438 L 9.515625 -21.679688 L 9.613281 -21.546875 C 9.648438 -21.480469 9.679688 -21.382812 9.710938 -21.25 C 11.171875 -17.601562 11.4375 -13.292969 11.933594 -10.144531 L 11.96875 -9.976562 Z M 7.195312 -9.515625 "/></g></g></g><g fill="#ffffff" fill-opacity="1"><g transform="translate(230.504264, 203.741655)"><g><path d="M 3.515625 0 L 3.546875 0 C 5.835938 0 6.230469 -1.65625 6.230469 -3.449219 L 6.230469 -3.777344 C 6.230469 -3.878906 6.230469 -4.011719 6.199219 -4.109375 C 6.097656 -6.730469 6.035156 -12.066406 6.035156 -15.117188 L 6.035156 -16.375 C 6.996094 -13.921875 7.226562 -13.160156 8.355469 -10.375 C 8.851562 -9.25 9.382812 -7.890625 9.945312 -6.332031 L 9.945312 -6.296875 L 10.042969 -6.097656 C 10.042969 -6.066406 10.042969 -6.066406 10.078125 -6.035156 L 11.570312 -1.558594 C 11.96875 -0.332031 12.363281 0.230469 13.957031 0 L 14.585938 0 C 15.480469 0 15.582031 -1.324219 15.710938 -1.890625 C 15.8125 -2.320312 15.878906 -2.785156 15.878906 -3.28125 C 15.84375 -3.746094 15.84375 -4.242188 15.878906 -4.742188 C 15.945312 -6.332031 15.976562 -8.089844 15.976562 -10.011719 L 15.976562 -11.800781 C 15.976562 -13.890625 15.84375 -16.210938 15.710938 -18.464844 C 15.710938 -19.027344 15.679688 -19.625 15.648438 -20.1875 C 15.648438 -20.683594 15.582031 -21.382812 15.582031 -22.875 L 15.582031 -23.734375 C 15.582031 -24.960938 15.546875 -26.554688 14.089844 -26.554688 C 12.496094 -26.554688 12.097656 -25.757812 12.066406 -24.996094 C 12.035156 -24.894531 12.035156 -24.695312 12.035156 -24.464844 C 12.035156 -24.398438 12.035156 -24.332031 12.066406 -24.265625 L 12.066406 -23.902344 C 12.066406 -21.8125 12.597656 -18.894531 12.597656 -16.707031 L 12.597656 -16.675781 C 12.597656 -14.453125 12.5625 -13.390625 12.5625 -10.144531 L 12.5625 -10.011719 C 12.5625 -9.84375 12.5625 -9.582031 12.597656 -9.25 C 12.597656 -8.917969 12.597656 -8.652344 12.5625 -8.484375 C 10.507812 -13.855469 8.585938 -19.523438 7.921875 -20.882812 L 7.691406 -21.414062 C 7.65625 -21.546875 7.589844 -21.679688 7.558594 -21.84375 C 7.492188 -22.011719 7.425781 -22.175781 7.390625 -22.34375 L 7.292969 -22.542969 C 6.628906 -24.429688 5.835938 -26.320312 3.746094 -26.421875 C 1.757812 -26.421875 1.324219 -24.695312 1.324219 -22.90625 L 1.324219 -20.15625 L 1.359375 -16.175781 C 1.359375 -13.988281 1.425781 -11.039062 1.425781 -8.75 L 1.425781 -6.761719 C 1.425781 -6.066406 1.425781 -5.402344 1.390625 -4.773438 C 1.359375 -4.675781 1.359375 -4.574219 1.359375 -4.476562 L 1.359375 -4.144531 C 1.324219 -4.011719 1.324219 -3.878906 1.324219 -3.746094 L 1.324219 -3.28125 C 1.324219 -1.691406 1.691406 0 3.515625 0 Z M 3.515625 0 "/></g></g></g><g fill="#ffffff" fill-opacity="1"><g transform="translate(247.807101, 203.741655)"><g><path d="M 8.453125 0 C 8.882812 0 9.28125 -0.03125 9.710938 -0.0976562 L 9.746094 -0.0976562 C 12.035156 -0.53125 13.589844 -1.824219 14.488281 -3.976562 L 14.488281 -4.011719 C 15.316406 -6.132812 15.480469 -8.75 15.480469 -11.003906 L 15.480469 -11.535156 C 15.480469 -11.703125 15.480469 -11.867188 15.449219 -12.035156 C 15.347656 -14.320312 14.851562 -15.082031 12.628906 -15.082031 L 12.429688 -15.082031 C 12.332031 -15.082031 12.265625 -15.082031 12.164062 -15.050781 L 11.636719 -15.050781 C 10.609375 -15.050781 9.28125 -14.984375 9.015625 -13.757812 L 9.015625 -13.492188 C 9.015625 -12.429688 9.777344 -12.265625 10.675781 -12.035156 L 10.707031 -12.035156 C 11.402344 -11.933594 11.867188 -11.734375 12.097656 -11.4375 L 12.097656 -11.402344 C 12.265625 -11.203125 12.363281 -10.808594 12.363281 -10.210938 C 12.363281 -10.011719 12.363281 -9.84375 12.332031 -9.746094 L 12.332031 -9.679688 C 12.332031 -7.691406 12.199219 -5.039062 10.507812 -3.449219 C 10.175781 -3.183594 9.878906 -3.050781 9.582031 -3.050781 C 9.28125 -3.050781 9.050781 -3.148438 8.851562 -3.382812 C 6.496094 -5.734375 6.164062 -11.46875 6.164062 -14.550781 L 6.164062 -14.71875 C 6.164062 -17.4375 6.597656 -22.972656 9.582031 -23.503906 L 9.613281 -23.503906 C 9.648438 -23.535156 9.710938 -23.535156 9.777344 -23.535156 L 9.910156 -23.535156 C 10.574219 -23.535156 11.070312 -23.269531 11.402344 -22.773438 L 11.402344 -22.742188 C 12.230469 -21.546875 12.363281 -19.589844 12.363281 -18.101562 L 12.363281 -17.867188 C 12.363281 -17.503906 12.464844 -17.203125 12.695312 -16.90625 C 12.960938 -16.609375 13.324219 -16.441406 13.757812 -16.410156 L 13.824219 -16.410156 C 14.222656 -16.410156 14.550781 -16.507812 14.816406 -16.707031 C 15.117188 -17.003906 15.28125 -17.335938 15.316406 -17.769531 L 15.316406 -18.429688 C 15.316406 -18.628906 15.316406 -18.828125 15.28125 -19.0625 L 15.28125 -19.09375 L 15.25 -19.328125 C 15.214844 -21.148438 14.816406 -22.839844 14.15625 -24.066406 L 14.121094 -24.066406 C 13.027344 -25.921875 11.335938 -26.519531 9.316406 -26.519531 C 3.414062 -26.519531 1.589844 -20.785156 1.425781 -15.710938 L 1.390625 -15.613281 C 1.359375 -14.984375 1.324219 -14.421875 1.324219 -13.855469 C 1.324219 -11.867188 1.589844 -9.945312 1.988281 -7.957031 C 2.683594 -4.441406 4.078125 0 8.453125 0 Z M 8.453125 0 "/></g></g></g><g fill="#ffffff" fill-opacity="1"><g transform="translate(264.612724, 203.741655)"><g><path d="M 7.921875 0 L 8.386719 0 C 9.183594 0 9.878906 -0.03125 10.507812 -0.0664062 C 11.667969 -0.164062 12.730469 -0.628906 12.730469 -1.789062 C 12.730469 -2.355469 12.230469 -3.347656 11.070312 -3.347656 L 11.039062 -3.347656 L 10.109375 -3.28125 C 9.945312 -3.25 9.746094 -3.25 9.582031 -3.25 L 8.484375 -3.25 C 8.320312 -3.25 8.121094 -3.25 7.957031 -3.28125 C 6.929688 -3.515625 6.332031 -4.375 6.132812 -5.867188 L 6.132812 -6.035156 C 6.097656 -6.066406 6.097656 -6.132812 6.097656 -6.164062 C 5.769531 -8.421875 5.800781 -9.648438 5.800781 -9.84375 L 5.835938 -10.773438 C 5.867188 -11.402344 6.53125 -11.402344 7.160156 -11.402344 L 8.71875 -11.402344 C 8.851562 -11.371094 8.984375 -11.371094 9.082031 -11.371094 L 9.679688 -11.371094 C 10.609375 -11.371094 11.238281 -12.066406 11.238281 -12.960938 C 11.238281 -13.425781 11.070312 -13.824219 10.742188 -14.15625 L 10.707031 -14.1875 C 10.410156 -14.488281 9.945312 -14.519531 9.546875 -14.519531 L 7.65625 -14.519531 C 7.492188 -14.519531 7.324219 -14.488281 7.160156 -14.453125 L 6.761719 -14.453125 C 6.496094 -14.453125 6.296875 -14.488281 6.164062 -14.550781 L 6.132812 -14.585938 C 6.097656 -14.617188 6.035156 -14.71875 6 -14.851562 C 5.933594 -14.949219 5.902344 -15.214844 5.902344 -15.582031 C 5.933594 -15.679688 5.933594 -15.84375 5.933594 -16.042969 C 5.96875 -16.144531 6 -16.242188 6 -16.34375 L 6 -16.574219 C 6 -17.335938 6.035156 -18.132812 6.097656 -18.894531 C 6.164062 -19.65625 6.199219 -20.421875 6.199219 -21.183594 L 6.199219 -21.515625 C 6.199219 -22.34375 6.429688 -22.90625 6.796875 -23.070312 C 7.128906 -23.203125 7.523438 -23.269531 7.957031 -23.269531 L 8.222656 -23.269531 C 8.289062 -23.238281 8.355469 -23.238281 8.421875 -23.238281 L 9.746094 -23.238281 C 10.675781 -23.238281 12.066406 -23.636719 12.066406 -24.828125 C 12.066406 -24.996094 12.035156 -25.160156 12 -25.261719 C 11.667969 -26.75 8.785156 -26.519531 7.128906 -26.519531 L 4.707031 -26.519531 C 2.289062 -26.519531 1.589844 -25.558594 1.589844 -23.039062 L 1.589844 -22.574219 L 1.425781 -19.824219 C 1.359375 -18.628906 1.359375 -17.4375 1.390625 -16.210938 C 1.425781 -14.984375 1.457031 -13.722656 1.425781 -12.464844 L 1.390625 -12.199219 C 1.359375 -10.972656 1.359375 -9.8125 1.324219 -8.683594 C 1.292969 -7.523438 1.359375 -6.429688 1.523438 -5.371094 C 1.625 -4.410156 1.824219 -3.316406 2.253906 -2.386719 C 2.75 -1.457031 3.414062 -0.796875 4.375 -0.429688 L 4.410156 -0.429688 C 5.238281 -0.164062 6.265625 -0.03125 7.425781 -0.03125 C 7.589844 0 7.757812 0 7.921875 0 Z M 7.921875 0 "/></g></g></g><g clip-path="url(#987c41297c)"><g clip-path="url(#5dd111dc31)"><path fill="#ff9933" d="M 85.082031 169.363281 L 232.242188 169.363281 L 232.242188 264.824219 L 85.082031 264.824219 Z M 85.082031 169.363281 " fill-opacity="1" fill-rule="nonzero"/></g></g><g clip-path="url(#4c52753faf)"><g clip-path="url(#7423346066)"><path fill="#ffaf28" d="M 69.183594 166.636719 L 207.140625 166.636719 L 207.140625 264.824219 L 69.183594 264.824219 Z M 69.183594 166.636719 " fill-opacity="1" fill-rule="nonzero"/></g></g></svg>