<svg fill="none" height="24" viewBox="0 0 24 24" width="24" xmlns="http://www.w3.org/2000/svg"><g stroke="#000" stroke-linecap="round" stroke-linejoin="round" stroke-width="2"><path d="m11.6049 5.78212.2292-2.36881c.0922-.95212.9805-1.59796 1.8787-1.36589 1.3515.3492 2.2997 1.60421 2.2997 3.04399v3.03483c0 .675 0 1.0125.1465 1.26066.0829.14039.1971.25833.3329.34402.2401.15147.5667.15147 1.2198.15147h.3963c1.7028 0 2.5542 0 3.0784.39051.3922.292.6688.7208.7788 1.2072.1472.6503-.1803 1.4625-.8352 3.087l-.3265.8098c-.1886.4678-.2658.9754-.2251 1.4804.2317 2.8733-2.0477 5.2951-4.8333 5.1352l-10.42443-.5985c-1.1384-.0654-1.7076-.0981-2.22211-.5532-.5145-.4552-.6113-.9239-.80491-1.8611-.16503-.799-.29365-1.7785-.29365-2.8909 0-1.2338.15821-2.3041.34883-3.1458.28274-1.2485 1.47537-1.9198 2.70651-1.7608 3.26353.4216 6.22236-2.01791 6.54956-5.40008z"/><path d="m7.00008 11.5-.13699.4566c-.88698 2.9566-.83914 6.115.13699 9.0434"/></g></svg>